<svg preserveAspectRatio="xMidYMid meet" viewBox="223.1833910034602 223.08399999999997 1056.2283737024222 731.5079999999999" xmlns="http://www.w3.org/2000/svg" version="1.0" style="max-height: 500px" width="292px" height="200px">
            <g stroke="none" fill="#000000" transform="translate(0.000000,1297.000000) scale(0.100000,-0.100000)">
                <path d="M10689 10647 c-25 -16 -39 -37 -52 -77 -32 -94 -129 -620 -182 -985 -8 -55 -24 -161 -36 -235 -11 -74 -31 -207 -43 -295 l-22 -160 -100 3 c-54 2 -155 8 -224 13 -69 6 -173 13 -232 16 l-108 5 -1 -23 c0 -13 -6 -40 -13 -59 -12 -33 -11 -37 24 -85 72 -98 113 -223 125 -386 l7 -86 156 -12 c86 -6 177 -13 202 -14 l45 -2 -1 -45 c-1 -25 -9 -139 -18 -255 -30 -380 -48 -756 -49 -1030 -2 -266 -2 -271 21 -311 39 -67 28 -64 377 -100 269 -27 307 -28 343 -10 56 29 69 62 98 264 8 59 23 143 34 187 10 44 35 181 54 305 20 124 41 252 46 285 18 109 68 477 89 650 12 94 23 187 26 208 5 38 25 221 50 477 14 138 39 410 50 550 11 135 35 624 41 837 6 216 6 223 -15 257 -35 56 -57 61 -471 116 -182 25 -180 25 -221 -3z"/>
                <path d="M4095 10468 c-38 -4 -144 -18 -234 -29 -173 -21 -206 -32 -240 -75 -20 -25 -21 -39 -21 -213 0 -163 8 -427 25 -796 27 -603 122 -1569 225 -2270 17 -115 33 -217 36 -225 7 -21 29 -152 49 -295 19 -141 30 -182 58 -213 30 -33 71 -40 182 -31 387 31 493 42 522 56 22 10 37 29 53 66 l23 52 -6 495 c-4 272 -11 554 -16 625 -6 72 -13 203 -17 291 l-7 162 139 7 c76 4 165 13 197 21 32 8 90 14 128 13 38 -1 71 0 74 3 2 2 -1 143 -7 312 l-12 307 -71 -5 c-156 -12 -545 -29 -551 -24 -3 3 -14 75 -24 159 -39 313 -52 407 -72 544 -11 77 -24 174 -28 215 -5 41 -15 116 -24 165 -8 50 -25 146 -36 215 -12 69 -27 161 -35 205 -15 92 -42 201 -56 227 -25 46 -98 56 -254 36z"/>
                <path d="M7746 10164 c-135 -33 -266 -140 -315 -261 l-24 -58 -5 -930 c-5 -1035 -2 -1098 48 -1202 64 -130 221 -223 380 -223 38 0 80 10 134 30 83 32 253 127 275 154 10 12 11 36 6 96 l-7 80 -70 35 c-209 105 -360 259 -435 445 -125 308 -17 626 247 730 58 23 191 30 299 15 l51 -7 0 426 c0 488 4 461 -91 552 -59 55 -137 97 -220 119 -68 18 -196 18 -273 -1z" fill="#2A85CC"/>
                <path d="M11510 10168 c0 -2 -5 -97 -10 -213 -16 -367 -30 -597 -40 -695 -5 -52 -17 -171 -26 -265 -8 -93 -27 -267 -40 -385 -13 -118 -29 -255 -34 -305 -6 -49 -15 -117 -20 -150 -5 -33 -16 -114 -25 -180 -38 -282 -99 -668 -125 -795 -21 -103 -61 -342 -58 -345 7 -7 558 -66 636 -68 114 -3 131 16 184 198 35 121 111 421 133 525 29 137 83 434 90 490 4 30 13 92 20 137 8 44 23 162 34 260 45 395 53 548 58 1073 5 563 5 569 -51 605 -35 23 -69 30 -310 60 -114 14 -252 32 -305 40 -100 15 -111 17 -111 13z"/>
                <path d="M3455 9995 c-5 -2 -50 -9 -100 -14 -584 -64 -599 -67 -630 -115 -50 -76 -44 -1120 10 -1661 19 -182 68 -548 91 -675 58 -313 149 -707 189 -820 38 -108 69 -125 203 -111 53 6 185 17 292 26 107 9 208 21 224 26 18 6 33 5 41 -1 31 -26 32 22 5 180 -31 185 -68 426 -85 555 -66 509 -82 644 -119 1030 -52 533 -65 754 -89 1509 -2 65 -8 79 -32 71z"/>
                <path d="M6668 9956 c-111 -47 -184 -111 -236 -209 l-27 -52 4 -945 c4 -1069 -2 -990 86 -1103 170 -216 529 -207 700 17 l26 34 -1 1018 c-1 1136 6 1043 -74 1127 -88 91 -201 137 -335 137 -67 -1 -99 -6 -143 -24z" fill="#2A85CC"/>
                <path d="M8845 9950 c-129 -27 -245 -108 -293 -203 -21 -43 -22 -53 -22 -376 0 -281 2 -331 14 -331 14 0 471 -49 666 -71 52 -6 120 -17 151 -25 31 -8 62 -14 68 -14 19 0 15 551 -4 625 -27 102 -63 165 -144 245 -104 103 -192 145 -324 154 -39 3 -90 1 -112 -4z" fill="#2A85CC"/>
                <path d="M5765 9682 c-113 -39 -208 -120 -261 -223 -34 -65 -35 -118 -16 -494 7 -137 17 -380 22 -540 18 -548 20 -575 68 -674 32 -67 130 -169 192 -201 123 -63 288 -66 405 -8 47 24 86 58 80 69 -3 4 -15 43 -27 86 -22 77 -22 88 -25 982 -2 708 -6 907 -15 919 -24 28 -113 79 -160 90 -70 18 -204 14 -263 -6z" fill="#2A85CC"/>
                <path d="M12436 8861 c-2 -3 -11 -60 -20 -126 -10 -66 -26 -176 -37 -245 -12 -69 -27 -172 -34 -230 -8 -58 -20 -145 -29 -195 -8 -49 -14 -90 -13 -92 5 -5 232 -18 255 -15 26 4 45 39 61 114 18 81 70 443 81 566 16 172 20 167 -193 214 -37 9 -69 13 -71 9z"/>
                <path d="M8023 8839 c-86 -42 -125 -114 -125 -229 0 -143 53 -253 186 -385 97 -97 179 -148 291 -181 88 -27 264 -25 372 4 45 12 85 22 88 22 25 0 -87 -98 -160 -140 -22 -12 -74 -35 -115 -49 l-75 -26 0 -125 c0 -69 2 -152 5 -185 l5 -60 -45 -13 c-222 -63 -379 -126 -510 -204 -46 -28 -89 -55 -95 -59 -109 -87 -261 -228 -308 -287 -39 -50 -136 -201 -165 -257 -68 -132 -112 -260 -132 -380 -12 -75 -15 -234 -5 -281 55 -254 220 -419 473 -474 50 -11 154 -22 245 -26 106 -5 156 -11 154 -18 -6 -18 -155 -93 -242 -121 -114 -38 -209 -43 -315 -16 -237 62 -424 232 -510 463 -92 251 -55 621 92 903 94 180 192 316 326 451 40 41 89 86 108 100 19 15 34 29 34 33 0 3 -34 21 -74 39 -41 19 -105 54 -142 78 l-68 44 -25 -24 c-40 -37 -131 -92 -200 -120 -206 -84 -459 -52 -643 79 -26 19 -53 35 -58 35 -5 0 -31 -15 -57 -34 -264 -187 -579 -158 -821 77 -99 97 -168 212 -193 324 l-12 52 -74 3 c-41 2 -79 1 -83 -2 -4 -3 -4 -45 1 -95 31 -346 41 -464 54 -650 30 -425 64 -610 159 -859 53 -140 188 -390 287 -533 22 -32 50 -74 63 -93 13 -19 44 -58 69 -85 25 -28 71 -98 102 -155 31 -58 67 -116 78 -129 33 -36 98 -78 158 -102 69 -27 258 -37 408 -20 119 14 411 56 483 69 26 5 50 7 52 5 14 -15 -66 -108 -140 -163 -185 -138 -476 -210 -856 -210 -197 0 -174 23 -183 -180 -7 -179 -32 -668 -45 -904 -6 -104 -8 -191 -5 -195 4 -3 370 -6 813 -6 l807 0 7 85 c4 47 12 141 18 210 6 69 15 193 20 275 14 213 38 514 50 624 16 149 64 234 169 302 68 44 74 40 66 -33 -6 -60 -60 -435 -91 -638 -8 -52 -19 -133 -24 -180 -6 -47 -19 -134 -30 -195 -30 -164 -70 -418 -70 -438 0 -16 36 -17 668 -15 l667 3 -3 110 c-1 61 -7 175 -12 255 -6 80 -15 235 -20 345 -6 110 -17 304 -25 430 -31 496 -40 789 -26 883 8 48 19 124 25 169 7 45 14 84 17 86 2 3 45 29 94 60 230 141 419 356 669 759 22 35 56 88 75 118 54 83 99 191 112 271 17 99 0 195 -66 384 -47 135 -67 204 -106 370 -25 110 -42 250 -69 575 -14 178 -50 259 -139 318 -89 57 -97 59 -586 108 -82 8 -217 21 -300 29 -193 20 -457 45 -470 45 -5 0 -29 -9 -52 -21z" fill="#2A85CC"/>
                <path d="M2439 8660 c-104 -22 -127 -33 -135 -67 -17 -65 31 -522 73 -711 22 -98 31 -104 140 -103 48 0 108 4 131 7 43 6 44 8 38 37 -3 16 -13 80 -21 141 -8 61 -25 194 -39 296 -14 102 -28 214 -31 250 -4 36 -11 89 -16 118 -12 61 -8 60 -140 32z"/>
            </g>
        </svg>